<mxfile host="app.diagrams.net" modified="2024-04-15T05:51:13.024Z" agent="Mozilla/5.0 (Windows NT 10.0; Win64; x64) AppleWebKit/537.36 (KHTML, like Gecko) Chrome/123.0.0.0 Safari/537.36" version="24.2.1" etag="oiPQyyIyr5zpno_Ao3TX" type="github">
  <diagram name="第 1 页" id="x7lkiZA8duc14OcDtTkT">
    <mxGraphModel>
      <root>
        <mxCell id="0" />
        <mxCell id="1" parent="0" />
      </root>
    </mxGraphModel>
  </diagram>
</mxfile>
